<svg width="32" height="32" viewBox="0 0 36 36" fill="none" xmlns="http://www.w3.org/2000/svg">
  <rect width="36" height="36" rx="8" fill="#040B18"/>
  <defs>
    <linearGradient id="f-eagle" x1="0" y1="0" x2="36" y2="36" gradientUnits="userSpaceOnUse">
      <stop offset="0%" stop-color="#93C5FD"/>
      <stop offset="40%" stop-color="#3B82F6"/>
      <stop offset="100%" stop-color="#1D4ED8"/>
    </linearGradient>
    <linearGradient id="f-trace" x1="0" y1="0" x2="1" y2="0" gradientUnits="objectBoundingBox">
      <stop offset="0%" stop-color="#93C5FD"/>
      <stop offset="100%" stop-color="#3B82F6"/>
    </linearGradient>
  </defs>
  <!-- Eagle head — scaled for 36x36: profile right, sharp crown, hooked beak, angular jaw (#2563EB) -->
  <path d="M 2 27 L 5 21 L 8 15 L 10 10 L 13 6 L 16 6 L 19 9 L 19 12 L 17 16 L 15 20 L 12 24 L 8 27 L 5 28 L 2 27 Z" stroke="#2563EB" stroke-width="0.85" fill="none" stroke-linejoin="round"/>
  <path d="M 10 10 L 12 5 L 14 8" stroke="#2563EB" stroke-width="0.6" fill="none" stroke-linecap="round" stroke-linejoin="round"/>
  <path d="M 16 7 L 20 5 L 22 9" stroke="#2563EB" stroke-width="0.6" fill="none" stroke-linecap="round"/>
  <path d="M 17 15 L 21 18" stroke="#2563EB" stroke-width="0.5" fill="none" stroke-linecap="round"/>
  <path d="M 14 10 L 17 9 L 18 12" stroke="url(#f-trace)" stroke-width="0.4" fill="none" stroke-linecap="round"/>
  <circle cx="16" cy="12" r="1" fill="#EF4444"/>
  <!-- PCB circuit traces — horizontal rows left from back of head -->
  <g stroke="url(#f-trace)" stroke-width="0.5" fill="none" stroke-linecap="round">
    <line x1="7" y1="13" x2="2" y2="13"/>
    <line x1="7" y1="17" x2="1" y2="17"/>
    <line x1="7" y1="21" x2="2" y2="21"/>
    <line x1="6" y1="25" x2="1" y2="25"/>
    <line x1="6" y1="10" x2="2" y2="8"/>
    <line x1="6" y1="10" x2="2" y2="12"/>
  </g>
  <g fill="none" stroke="#60A5FA" stroke-width="0.5">
    <circle cx="2" cy="13" r="0.8"/>
    <circle cx="1" cy="17" r="0.8"/>
    <circle cx="2" cy="21" r="0.8"/>
    <circle cx="1" cy="25" r="0.8"/>
    <circle cx="2" cy="8" r="0.6"/>
    <circle cx="2" cy="12" r="0.6"/>
  </g>
</svg>
