<svg width="32" height="32" viewBox="0 0 36 36" fill="none" xmlns="http://www.w3.org/2000/svg">
  <rect width="36" height="36" rx="8" fill="#040B18"/>
  <defs>
    <linearGradient id="f-brand" x1="0" y1="0" x2="36" y2="36" gradientUnits="userSpaceOnUse">
      <stop offset="0%" stop-color="#86EFAC"/>
      <stop offset="100%" stop-color="#16A34A"/>
    </linearGradient>
  </defs>
  <path d="M 7 28 C 2 22 2 10 8 6 C 12 3 17 3 21 5" stroke="url(#f-brand)" stroke-width="1.3" fill="none" opacity="0.7" stroke-linecap="round"/>
  <circle cx="7" cy="28" r="1.1" fill="#4ADE80" opacity="0.8"/>
  <circle cx="4" cy="20" r="1" fill="#4ADE80" opacity="0.6"/>
  <circle cx="4" cy="13" r="1" fill="#4ADE80" opacity="0.6"/>
  <circle cx="8" cy="7" r="1.1" fill="#4ADE80" opacity="0.8"/>
  <circle cx="14" cy="4" r="1" fill="#4ADE80" opacity="0.6"/>
  <circle cx="21" cy="5" r="1.1" fill="#4ADE80" opacity="0.8"/>
  <line x1="8" y1="7" x2="14" y2="4" stroke="#4ADE80" stroke-width="0.7" opacity="0.35"/>
  <line x1="14" y1="4" x2="21" y2="5" stroke="#4ADE80" stroke-width="0.7" opacity="0.3"/>
  <path d="M 21 5 C 25 4 28 5 29 8 C 30 10 28 13 26 13" stroke="url(#f-brand)" stroke-width="1.4" fill="none" stroke-linecap="round"/>
  <path d="M 23 3 L 26 1 L 25 5" stroke="#86EFAC" stroke-width="1.1" fill="none" stroke-linecap="round" stroke-linejoin="round" opacity="0.9"/>
  <circle cx="26" cy="7.5" r="1.2" fill="#4ADE80"/>
  <circle cx="26" cy="7.5" r="0.5" fill="#FFFFFF" opacity="0.8"/>
  <path d="M 7 28 C 10 32 16 33 19 31 C 21 30 22 28 20 27" stroke="url(#f-brand)" stroke-width="1.2" fill="none" stroke-linecap="round" opacity="0.7"/>
  <path d="M 18 9 L 12 11.5 L 12 17.5 C 12 21.5 14.8 24.8 18 26 C 21.2 24.8 24 21.5 24 17.5 L 24 11.5 Z" fill="rgba(74,222,128,0.08)" stroke="url(#f-brand)" stroke-width="1.4" stroke-linejoin="round"/>
  <line x1="14.5" y1="14" x2="21.5" y2="22" stroke="url(#f-brand)" stroke-width="1.8" stroke-linecap="round"/>
  <line x1="21.5" y1="14" x2="14.5" y2="22" stroke="url(#f-brand)" stroke-width="1.8" stroke-linecap="round"/>
</svg>
