
        <svg xmlns="http://www.w3.org/2000/svg" xmlns:xlink="http://www.w3.org/1999/xlink" version="1.1" width="3200" 
        height="1016.1861408669508" viewBox="0 0 3200 1016.1861408669508" shape-rendering="crispEdges" text-rendering="optimizeLegibility">
			
			<g transform="scale(10) translate(10, 10)">
				<defs id="SvgjsDefs1027"></defs><g id="SvgjsG1028" featureKey="symbolFeature-0" transform="matrix(1.6186140866950844,0,0,1.6186140866950844,-1.5263420190087313,-0.9582859277918896)" fill="#ffffff">    <title xmlns="http://www.w3.org/2000/svg">Shape 24</title>    <g xmlns="http://www.w3.org/2000/svg" id="Page-1" stroke-width="1" fill-rule="evenodd">        <g id="Artboard" transform="translate(-293.000000, -1115.000000)" fill-rule="nonzero">            <g id="Shape-24" transform="translate(293.943000, 1115.592000)">                <path d="M-1.42108547e-14,0 L49.425,0 L49.425,49.424 L45.105,43.1 L45.105,4.321 L4.321,4.321 L4.321,45.106 L12.331,45.106 L20.062,33.786 L22.745,37.733 L14.759,49.424 L0.002,49.424 L-1.42108547e-14,0 L-1.42108547e-14,0 Z M27.757,45.106 L36.169,45.106 L25.102,28.622 L35.96,12.726 L39.733,15.105 L30.087,29.226 L43.941,49.425 L34.9,49.425 L27.757,45.106 L27.757,45.106 Z M12.252,12.059 L18.68,15.104 L22.255,20.374 L20.107,23.479 L12.252,12.059 L12.252,12.059 Z" id="Shape" stroke="none" fill="#ffffff"></path>            </g>        </g>    </g></g><g id="SvgjsG1029" featureKey="nameFeature-0" transform="matrix(1.9787057254932272,0,0,1.9787057254932272,97.4493251224916,-24.501941991459102)" fill="#FF1B8D"><path d="M1.289063 40 l10.625 -14.238281 l-10.078125 -13.007812 l3.28125 0 l8.417969 11.132813 l8.378906 -11.132812 l3.28125 0 l-10.078125 13.007813 l10.625 14.238281 l-3.417969 0 l-8.789062 -12.226562 l-8.828125 12.226563 l-3.417969 0 z M43.392578 40.371094 c-5.605469 0 -9.511719 -2.675781 -10.488281 -6.992187 l2.714844 -0.664062 c0.742188 3.261719 3.828125 5.214844 7.851563 5.214844 c3.28125 0 6.679688 -1.289062 6.601563 -5.15625 c-0.058594 -3.671875 -3.886719 -4.609375 -7.832031 -5.625 c-4.355469 -1.113281 -8.574219 -2.34375 -8.574219 -7.363281 c0 -5.039062 4.21875 -7.402344 8.847656 -7.402344 c4.804688 0 8.808594 2.070313 9.804688 6.425781 l-2.636719 0.683594 c-0.78125 -3.203125 -3.75 -4.667969 -7.109375 -4.667969 c-2.988281 0 -6.171875 1.347656 -6.171875 4.980469 c0 3.28125 3.242188 4.199219 6.914063 5.117188 c4.492188 1.113281 9.511719 2.304688 9.511719 7.8125 c0 5.371094 -4.453125 7.636719 -9.433594 7.636719 z M77.644531 15.253906 l-11.40625 0 l0 9.902344 l10.019531 0 l0 2.480469 l-10.019531 0 l0 9.863281 l11.40625 0 l0 2.5 l-14.21875 0 l0 -27.246094 l14.21875 0 l0 2.5 z M102.365234 15.253906 l-11.40625 0 l0 9.902344 l10.019531 0 l0 2.480469 l-10.019531 0 l0 9.863281 l11.40625 0 l0 2.5 l-14.21875 0 l0 -27.246094 l14.21875 0 l0 2.5 z"></path></g><g id="SvgjsG1030" featureKey="sloganFeature-0" transform="matrix(0.29562161011291505,0,0,0.29562161011291505,99.86142758170462,73.26206826867212)" fill="#FF1B8D"><path d="M9.677734 6.074219 l0 2.080078 l-3.4375 0 l0 11.845703 l-2.324219 0 l0 -11.845703 l-3.447266 0 l0 -2.080078 l9.208984 0 z M24.756836 20 l-3.613281 -6.210937 l-1.503906 0 l0 6.210938 l-2.333984 0 l0 -13.925781 l4.833984 0 c3.017578 0 4.345703 1.806641 4.345703 4.042969 c0 1.943359 -1.152344 3.251953 -2.998047 3.583984 l4.013672 6.298828 l-2.744141 0 z M19.639649 8.046875 l0 4.013672 l2.158203 0 c1.708984 0 2.441406 -0.800781 2.441406 -1.992187 c0 -1.181641 -0.732422 -2.021484 -2.441406 -2.021484 l-2.158203 0 z M40.207032 20.185547 c-2.958984 0 -5.263672 -1.650391 -5.263672 -4.931641 l0 -9.179687 l2.34375 0 l0 8.857422 c0 2.216797 1.279297 3.164063 2.919922 3.164063 s2.939453 -0.957031 2.939453 -3.164062 l0 -8.857422 l2.333984 0 l0 9.179688 c0 3.28125 -2.304687 4.931641 -5.273437 4.931641 z M58.811524 20.185547 c-2.949219 0 -5.15625 -1.40625 -5.605469 -3.867187 l2.402344 -0.556641 c0.253906 1.601563 1.572266 2.480469 3.291016 2.480469 c1.357422 0 2.587891 -0.576172 2.568359 -2.041016 c-0.019531 -1.523437 -1.708984 -1.962891 -3.535156 -2.480469 c-2.109375 -0.615234 -4.277344 -1.318359 -4.277344 -3.876953 c0 -2.597656 2.128906 -3.964844 4.775391 -3.964844 c2.441406 0 4.755859 1.025391 5.292969 3.525391 l-2.255859 0.566406 c-0.3125 -1.484375 -1.464844 -2.138672 -2.919922 -2.138672 c-1.298828 0 -2.529297 0.556641 -2.529297 1.972656 c0 1.289063 1.474609 1.689453 3.164063 2.158203 c2.177734 0.605469 4.697266 1.347656 4.697266 4.140625 c0 2.880859 -2.412109 4.082031 -5.068359 4.082031 z M79.730468 6.074219 l0 2.080078 l-3.4375 0 l0 11.845703 l-2.324219 0 l0 -11.845703 l-3.447266 0 l0 -2.080078 l9.208984 0 z M107.154297 6.074219 l2.333984 0 l0 13.925781 l-2.617187 0 l-6.835937 -10.625 l0 10.625 l-2.314453 0 l0 -13.925781 l2.587891 0 l6.845703 10.556641 l0 -10.556641 z M124.704102 20.185547 c-4.003906 0 -7.03125 -2.744141 -7.03125 -7.158203 c0 -4.404297 3.027344 -7.148437 7.03125 -7.148437 c3.994141 0 7.021484 2.744141 7.021484 7.148438 c0 4.414063 -3.027344 7.158203 -7.021484 7.158203 z M124.704102 18.017578 c2.636719 0 4.697266 -1.826172 4.697266 -4.990234 c0 -3.134766 -2.060547 -4.970703 -4.697266 -4.970703 s-4.697266 1.835938 -4.697266 4.970703 c0 3.164063 2.060547 4.990234 4.697266 4.990234 z M147.605468 6.074219 l0 2.080078 l-3.4375 0 l0 11.845703 l-2.324219 0 l0 -11.845703 l-3.447266 0 l0 -2.080078 l9.208984 0 z M164.041992 6.074219 l2.34375 0 l0 13.925781 l-2.34375 0 l0 -5.947266 l-6.464844 0 l0 5.947266 l-2.34375 0 l0 -13.925781 l2.34375 0 l0 5.917969 l6.464844 0 l0 -5.917969 z M175.527344 20 l0 -13.925781 l2.333984 0 l0 13.925781 l-2.333984 0 z M196.446289 6.074219 l2.333984 0 l0 13.925781 l-2.617187 0 l-6.835937 -10.625 l0 10.625 l-2.314453 0 l0 -13.925781 l2.587891 0 l6.845703 10.556641 l0 -10.556641 z M213.898437 20.185547 c-3.945312 0 -6.933594 -2.705078 -6.933594 -7.119141 c0 -4.443359 3.027344 -7.1875 7.03125 -7.1875 c2.617188 0 4.824219 1.152344 6.035156 3.261719 l-2.060547 1.103516 c-0.820312 -1.552734 -2.285156 -2.285156 -3.974609 -2.285156 c-2.646484 0 -4.677734 1.806641 -4.677734 5.058594 c0 3.183594 1.953125 5.097656 4.765625 5.097656 c2.128906 0 3.896484 -1.142578 4.248047 -3.535156 l-4.248047 0 l0 -1.923828 l6.484375 0 l0 7.34375 l-1.865234 0 l0 -2.265625 c-0.917969 1.542969 -2.539062 2.451172 -4.804687 2.451172 z M230.31543 23.564453 l-1.621094 0 l1.210938 -6.220703 l2.324219 0 z M256.586914 6.074219 c2.617188 0 4.287109 1.962891 4.287109 4.384766 c0 2.460938 -1.669922 4.345703 -4.287109 4.345703 l-3.203125 0 l0 5.195313 l-2.333984 0 l0 -13.925781 l5.537109 0 z M256.21582 12.8125 c1.5625 0 2.382813 -0.957031 2.382813 -2.382812 c0 -1.376953 -0.820312 -2.382812 -2.382812 -2.382812 l-2.832031 0 l0 4.765625 l2.832031 0 z M276.255859 20 l-3.613281 -6.210937 l-1.503906 0 l0 6.210938 l-2.333984 0 l0 -13.925781 l4.833984 0 c3.017578 0 4.345703 1.806641 4.345703 4.042969 c0 1.943359 -1.152344 3.251953 -2.998047 3.583984 l4.013672 6.298828 l-2.744141 0 z M271.138672 8.046875 l0 4.013672 l2.158203 0 c1.708984 0 2.441406 -0.800781 2.441406 -1.992187 c0 -1.181641 -0.732422 -2.021484 -2.441406 -2.021484 l-2.158203 0 z M292.799805 20.185547 c-4.003906 0 -7.03125 -2.744141 -7.03125 -7.158203 c0 -4.404297 3.027344 -7.148437 7.03125 -7.148437 c3.994141 0 7.021484 2.744141 7.021484 7.148438 c0 4.414063 -3.027344 7.158203 -7.021484 7.158203 z M292.799805 18.017578 c2.636719 0 4.697266 -1.826172 4.697266 -4.990234 c0 -3.134766 -2.060547 -4.970703 -4.697266 -4.970703 s-4.697266 1.835938 -4.697266 4.970703 c0 3.164063 2.060547 4.990234 4.697266 4.990234 z M316.736329 6.074219 l2.480469 0 l-5.136719 13.925781 l-2.509766 0 l-5.107422 -13.925781 l2.470703 0 l3.90625 11.123047 z M334.588867 8.154297 l-5.410156 0 l0 3.857422 l4.785156 0 l0 2.060547 l-4.785156 0 l0 3.837891 l5.410156 0 l0 2.089844 l-7.773437 0 l0 -13.925781 l7.773438 0 l0 2.080078 z M361.075195 8.154297 l-5.410156 0 l0 3.857422 l4.785156 0 l0 2.060547 l-4.785156 0 l0 3.837891 l5.410156 0 l0 2.089844 l-7.773437 0 l0 -13.925781 l7.773438 0 l0 2.080078 z M378.146485 6.074219 l2.480469 0 l-5.136719 13.925781 l-2.509766 0 l-5.107422 -13.925781 l2.470703 0 l3.90625 11.123047 z M395.999023 8.154297 l-5.410156 0 l0 3.857422 l4.785156 0 l0 2.060547 l-4.785156 0 l0 3.837891 l5.410156 0 l0 2.089844 l-7.773437 0 l0 -13.925781 l7.773438 0 l0 2.080078 z M411.800781 20 l-3.613281 -6.210937 l-1.503906 0 l0 6.210938 l-2.333984 0 l0 -13.925781 l4.833984 0 c3.017578 0 4.345703 1.806641 4.345703 4.042969 c0 1.943359 -1.152344 3.251953 -2.998047 3.583984 l4.013672 6.298828 l-2.744141 0 z M406.683594 8.046875 l0 4.013672 l2.158203 0 c1.708984 0 2.441406 -0.800781 2.441406 -1.992187 c0 -1.181641 -0.732422 -2.021484 -2.441406 -2.021484 l-2.158203 0 z M432.114258 6.074219 l-4.580078 7.275391 l0 6.650391 l-2.34375 0 l0 -6.621094 l-4.599609 -7.304687 l2.617188 0 l3.144531 5.205078 l3.154297 -5.205078 l2.607422 0 z M447.261718 6.074219 l0 2.080078 l-3.4375 0 l0 11.845703 l-2.324219 0 l0 -11.845703 l-3.447266 0 l0 -2.080078 l9.208984 0 z M463.698242 6.074219 l2.34375 0 l0 13.925781 l-2.34375 0 l0 -5.947266 l-6.464844 0 l0 5.947266 l-2.34375 0 l0 -13.925781 l2.34375 0 l0 5.917969 l6.464844 0 l0 -5.917969 z M475.183594 20 l0 -13.925781 l2.333984 0 l0 13.925781 l-2.333984 0 z M496.102539 6.074219 l2.333984 0 l0 13.925781 l-2.617187 0 l-6.835937 -10.625 l0 10.625 l-2.314453 0 l0 -13.925781 l2.587891 0 l6.845703 10.556641 l0 -10.556641 z M513.554687 20.185547 c-3.945312 0 -6.933594 -2.705078 -6.933594 -7.119141 c0 -4.443359 3.027344 -7.1875 7.03125 -7.1875 c2.617188 0 4.824219 1.152344 6.035156 3.261719 l-2.060547 1.103516 c-0.820312 -1.552734 -2.285156 -2.285156 -3.974609 -2.285156 c-2.646484 0 -4.677734 1.806641 -4.677734 5.058594 c0 3.183594 1.953125 5.097656 4.765625 5.097656 c2.128906 0 3.896484 -1.142578 4.248047 -3.535156 l-4.248047 0 l0 -1.923828 l6.484375 0 l0 7.34375 l-1.865234 0 l0 -2.265625 c-0.917969 1.542969 -2.539062 2.451172 -4.804687 2.451172 z M539.386719 15.800781 l-0.195312 -9.726562 l2.255859 0 l-0.195312 9.726563 l-1.865234 0 z M540.324219 20.195313 c-0.751953 0 -1.376953 -0.615234 -1.376953 -1.367187 c0 -0.771484 0.625 -1.376953 1.376953 -1.376953 c0.761719 0 1.376953 0.605469 1.376953 1.376953 c0 0.751953 -0.615234 1.367188 -1.376953 1.367188 z"></path></g>
			</g>
		</svg>
	