<svg width="1200" height="1200" xmlns="http://www.w3.org/2000/svg" xmlns:xlink="http://www.w3.org/1999/xlink" version="1.1"><g transform="scale(21.417947770760485) translate(1.8583956824408636, 2.2093478308783636)">                        <g fill="#ffffff">    <title xmlns="http://www.w3.org/2000/svg">Shape 24</title>    <g xmlns="http://www.w3.org/2000/svg" id="Page-1" stroke-width="1" fill-rule="evenodd">        <g id="Artboard" transform="translate(-293.000000, -1115.000000)" fill-rule="nonzero">            <g id="Shape-24" transform="translate(293.943000, 1115.592000)">                <path d="M-1.42108547e-14,0 L49.425,0 L49.425,49.424 L45.105,43.1 L45.105,4.321 L4.321,4.321 L4.321,45.106 L12.331,45.106 L20.062,33.786 L22.745,37.733 L14.759,49.424 L0.002,49.424 L-1.42108547e-14,0 L-1.42108547e-14,0 Z M27.757,45.106 L36.169,45.106 L25.102,28.622 L35.96,12.726 L39.733,15.105 L30.087,29.226 L43.941,49.425 L34.9,49.425 L27.757,45.106 L27.757,45.106 Z M12.252,12.059 L18.68,15.104 L22.255,20.374 L20.107,23.479 L12.252,12.059 L12.252,12.059 Z" id="Shape" stroke="none"/>            </g>        </g>    </g></g>        </g></svg>